<svg width="100" height="100" viewBox="0 0 100 100" fill="none" xmlns="http://www.w3.org/2000/svg">
<path d="M95.8332 29.1667V37.5H91.6665V41.6667H87.4998V58.3333H83.3332V70.8333H79.1665V79.1667H74.9998V87.5H24.9998V79.1667H20.8332V70.8333H16.6665V58.3333H12.4998V41.6667H8.33317V37.5H4.1665V29.1667H8.33317V25H16.6665V29.1667H20.8332V37.5H16.6665V41.6667H20.8332V45.8333H24.9998V50H33.3332V45.8333H37.4998V37.5H41.6665V29.1667H45.8332V25H41.6665V16.6667H45.8332V12.5H54.1665V16.6667H58.3332V25H54.1665V29.1667H58.3332V37.5H62.4998V45.8333H66.6665V50H74.9998V45.8333H79.1665V41.6667H83.3332V37.5H79.1665V29.1667H83.3332V25H91.6665V29.1667H95.8332Z" fill="#2FFD2F"/>
</svg>
