<svg width="500" height="500" viewBox="0 0 500 500" fill="none" xmlns="http://www.w3.org/2000/svg">
<rect x="2" y="2" width="496" height="496" fill="#052B2E" stroke="#28D82B" stroke-width="4"/>
<path d="M337.5 147.917V235.417H322.917V250H293.75V264.584H279.167V293.75H206.25V250H220.833V235.417H235.417V220.834H264.583V206.25H279.167V177.084H264.583V162.5H235.417V177.084H220.833V191.667H206.25V206.25H191.667V191.667H177.083V177.084H162.5V162.5H147.917V147.917H162.5V133.334H177.083V118.75H206.25V104.167H293.75V118.75H308.333V133.334H322.917V147.917H337.5Z" fill="white"/>
<path d="M264.583 337.5H279.167V381.25H264.583V395.834H220.833V381.25H206.25V337.5H220.833V322.917H264.583V337.5Z" fill="white"/>
</svg>
