<svg width="80" height="80" viewBox="0 0 80 80" fill="none" xmlns="http://www.w3.org/2000/svg">
<path d="M70 13.3333V16.6666H66.6667V19.9999H63.3333V23.3333H60V26.6666H56.6667V29.9999H53.3333V33.3333H50V36.6666H46.6667V39.9999H43.3333V43.3333H36.6667V39.9999H33.3333V36.6666H30V33.3333H26.6667V29.9999H23.3333V26.6666H20V23.3333H16.6667V19.9999H13.3333V16.6666H10V13.3333H70Z" fill="white"/>
<path d="M76.6667 16.6667V63.3334H73.3333V66.6667H6.66668V63.3334H3.33334V16.6667H10V20.0001H13.3333V23.3334H16.6667V26.6667H20V30.0001H23.3333V33.3334H26.6667V36.6667H30V40.0001H33.3333V43.3334H36.6667V46.6667H43.3333V43.3334H46.6667V40.0001H50V36.6667H53.3333V33.3334H56.6667V30.0001H60V26.6667H63.3333V23.3334H66.6667V20.0001H70V16.6667H76.6667Z" fill="white"/>
</svg>
