<svg width="496" height="641" viewBox="0 0 496 641" fill="none" xmlns="http://www.w3.org/2000/svg">
<rect x="30" y="641" width="493" height="131" transform="rotate(-90 30 641)" fill="#066A73"/>
<rect x="183" y="641" width="423" height="131" transform="rotate(-90 183 641)" fill="#066A73"/>
<rect x="336" y="641" width="341" height="131" transform="rotate(-90 336 641)" fill="#066A73"/>
<path d="M40.6621 127.576L40.6621 123.256H36.2941V101.08H40.6621V96.712H54.1981V101.08H58.6141V105.88H53.7181V101.56H41.1421V109.768H54.1981V114.04H58.6141V123.256H54.1981L54.1981 127.576H40.6621ZM41.1421 122.776H53.7181V114.52H41.1421V122.776ZM81.8431 127.576V118.888H64.4191V109.768H68.7871V105.4H73.1071V101.08H77.5231V96.712H86.7391V127.576H81.8431ZM69.2671 114.04H81.8431V101.56H78.0031V105.88H73.5871V110.2H69.2671V114.04ZM96.9121 127.576V123.256H92.5441V101.08H96.9121V96.712H110.448V101.08H114.864V123.256H110.448V127.576H96.9121ZM97.3921 122.776H109.968V101.56H97.3921V122.776ZM120.669 127.576V101.08H125.037V96.712H129.837V101.08H134.253V109.768H138.093V101.08H142.509V96.712H147.357V101.08H151.677V127.576H146.877V101.56H142.989V110.2H138.573V123.256H133.773V110.2H129.357V101.56H125.517V127.576H120.669Z" fill="#2FFD2F"/>
<path d="M81.859 617.216V612.944H77.443V608.576H73.123V604.256H68.755V582.08H73.123V577.712H86.659V582.08H91.075V604.256H86.659V608.576H82.339V612.464H86.659V617.216H81.859ZM73.603 603.776H86.179V582.56H73.603V603.776ZM101.248 608.576V604.256H96.88V599.408H101.728V603.776H114.304V595.52H101.248V590.768H114.304V582.56H101.728V586.88H96.88V582.08H101.248V577.712H114.784V582.08H119.2V591.2H114.784V595.04H119.2V604.256H114.784V608.576H101.248Z" fill="#2FFD2F"/>
<path d="M236.859 617.216V612.944H232.443V608.576H228.123V604.256H223.755V582.08H228.123V577.712H241.659V582.08H246.075V604.256H241.659V608.576H237.339V612.464H241.659V617.216H236.859ZM228.603 603.776H241.179V582.56H228.603V603.776ZM256.248 608.576V604.256H251.88V595.04H256.248V590.768H269.304V582.56H256.728V586.88H251.88V582.08H256.248V577.712H269.784V582.08H274.2V591.2H269.784V595.52H256.728V603.776H269.304V599.408H274.2V604.256H269.784V608.576H256.248Z" fill="white"/>
<path d="M394.687 617.216V612.944H390.271V608.576H385.951V604.256H381.583V582.08H385.951V577.712H399.487V582.08H403.903V604.256H399.487V608.576H395.167V612.464H399.487V617.216H394.687ZM386.431 603.776H399.007V582.56H386.431V603.776ZM417.459 608.576V582.56H413.619V586.88H408.771V582.08H413.139V577.712H417.939V582.08H422.355V608.576H417.459Z" fill="white"/>
<path d="M195.662 198.576V194.256H191.294V172.08H195.662V167.712H209.198V172.08H213.614V176.88H208.718V172.56H196.142V180.768H209.198V185.04H213.614V194.256H209.198V198.576H195.662ZM196.142 193.776H208.718V185.52H196.142V193.776ZM223.787 198.576V194.256H219.419V185.04H223.787V180.768H236.843V172.56H224.267V176.88H219.419V172.08H223.787V167.712H237.323V172.08H241.739V181.2H237.323V185.52H224.267V193.776H236.843V189.408H241.739V194.256H237.323V198.576H223.787ZM251.912 198.576V194.256H247.544V172.08H251.912V167.712H265.448V172.08H269.864V176.88H264.968V172.56H252.392V180.768H265.448V185.04H269.864V194.256H265.448V198.576H251.912ZM252.392 193.776H264.968V185.52H252.392V193.776ZM275.669 198.576V172.08H280.037V167.712H284.837V172.08H289.253V180.768H293.093V172.08H297.509V167.712H302.357V172.08H306.677V198.576H301.877V172.56H297.989V181.2H293.573V194.256H288.773V181.2H284.357V172.56H280.517V198.576H275.669Z" fill="white"/>
<path d="M353.49 280.576V276.256H349.122V254.08H353.49V249.712H367.026V254.08H371.442V258.88H366.546V254.56H353.97V262.768H367.026V267.04H371.442V276.256H367.026V280.576H353.49ZM353.97 275.776H366.546V267.52H353.97V275.776ZM384.998 280.576V254.56H381.158V258.88H376.31V254.08H380.678V249.712H385.478V254.08H389.894V280.576H384.998ZM400.084 280.576V276.256H395.716V271.408H400.564V275.776H413.14V271.888H404.404V267.52H400.084V263.2H395.716V254.08H400.084V249.712H413.62V254.08H418.036V263.2H413.14V254.56H400.564V262.768H404.884V267.04H413.62V271.408H418.036V276.256H413.62V280.576H400.084ZM423.841 280.576V254.08H428.209V249.712H433.009V254.08H437.425V262.768H441.265V254.08H445.681V249.712H450.529V254.08H454.849V280.576H450.049V254.56H446.161V263.2H441.745V276.256H436.945V263.2H432.529V254.56H428.689V280.576H423.841Z" fill="white"/>
<path d="M114 13.3332V6.6665H74.0002V13.3332H57.3335V29.9998H60.6668V36.6665H64.0002V39.9998H67.3335V43.3332H70.6668V46.6665H74.0002V49.9998H84.0002V53.3332H90.6668V63.3332H77.3335V73.3332H110.667V63.3332H97.3335V53.3332H104V49.9998H114V46.6665H117.333V43.3332H120.667V39.9998H124V36.6665H127.333V29.9998H130.667V13.3332H114ZM70.6668 39.9998V36.6665H67.3335V29.9998H64.0002V19.9998H70.6668V23.3332H74.0002V29.9998H77.3335V39.9998H80.6668V43.3332H74.0002V39.9998H70.6668ZM124 29.9998H120.667V36.6665H117.333V39.9998H114V43.3332H107.333V39.9998H110.667V33.3332H114V23.3332H117.333V19.9998H124V29.9998Z" fill="#2FFD2F"/>
</svg>
