<svg width="100" height="100" viewBox="0 0 100 100" fill="none" xmlns="http://www.w3.org/2000/svg">
<path d="M95.4545 36.3636V27.2727H90.9091V18.1818H86.3636V13.6364H81.8182V9.09091H72.7273V4.54545H63.6364V0H36.3636V4.54545H27.2727V9.09091H18.1818V13.6364H13.6364V18.1818H9.09091V27.2727H4.54545V36.3636H0V63.6364H4.54545V72.7273H9.09091V81.8182H13.6364V86.3636H18.1818V90.9091H27.2727V95.4545H36.3636V100H63.6364V95.4545H72.7273V90.9091H81.8182V86.3636H86.3636V81.8182H90.9091V72.7273H95.4545V63.6364H100V36.3636H95.4545Z" fill="#159B99"/>
<path d="M35.75 40H33V29H35.75V23.5H38.5V20.75H44V18H55V20.75H60.5V23.5H63.25V29H66V40H63.25V45.5H60.5V48.25H55V51H44V48.25H38.5V45.5H35.75V40Z" fill="#C6FFC8"/>
<path d="M77 67.5V75.75H74.25V78.5H24.75V75.75H22V67.5H24.75V64.75H27.5V62H30.25V59.25H35.75V56.5H63.25V59.25H68.75V62H71.5V64.75H74.25V67.5H77Z" fill="#C6FFC8"/>
</svg>
